{"accessors" : [{"bufferView" : 0, "byteOffset" : 0, "componentType" : 5123, "count" : 33918, "type" : "SCALAR", "max" : [6868], "min" : [0]}, {"bufferView" : 1, "byteOffset" : 0, "componentType" : 5126, "count" : 6869, "type" : "VEC3", "max" : [13.510411262512207, 24.17330551147461, 68.94544982910156], "min" : [-14.099859237670898, -95.20474243164062, 5.289766311645508], "name" : "POSITION"}, {"bufferView" : 1, "byteOffset" : 12, "componentType" : 5126, "count" : 6869, "type" : "VEC3", "max" : [1.0000044107437134, 1.0000044107437134, 1.0000044107437134], "min" : [-1.0000044107437134, -1.0000044107437134, -1.0000044107437134], "name" : "NORMAL"}, {"bufferView" : 1, "byteOffset" : 24, "componentType" : 5126, "count" : 6869, "type" : "VEC4", "max" : [1.0000035762786865, 0.99551922082901, 1.0000044107437134, 1], "min" : [-0.999992311000824, -1.0000044107437134, -1.0000019073486328, 1], "name" : "TANGENT"}, {"bufferView" : 1, "byteOffset" : 40, "componentType" : 5126, "count" : 6869, "type" : "VEC2", "max" : [1, 1], "min" : [0, 0.00877159833908081], "name" : "TEXCOORD_0"}], "asset" : {"generator" : "Aspose.3D 24.2.0", "version" : "2.0"}, "buffers" : [{"uri" : "buffer.bin", "byteLength" : 397556}], "bufferViews" : [{"buffer" : 0, "byteOffset" : 0, "byteLength" : 67836, "target" : 34963}, {"buffer" : 0, "byteOffset" : 67840, "byteLength" : 329712, "byteStride" : 48, "target" : 34962}], "materials" : [{"name" : "DefaultMaterial", "pbrMetallicRoughness" : {"baseColorFactor" : [0.6000000238418579, 0.6000000238418579, 0.6000000238418579, 1], "metallicFactor" : 1, "roughnessFactor" : 1}, "emissiveFactor" : [0, 0, 0], "alphaMode" : "OPAQUE", "doubleSided" : false}], "meshes" : [{"primitives" : [{"attributes" : {"POSITION" : 1, "NORMAL" : 2, "TANGENT" : 3, "TEXCOORD_0" : 4}, "indices" : 0, "material" : 0, "mode" : 4}], "name" : "Cylinder004"}], "nodes" : [{"matrix" : [-6.123233995736766E-17, -7.498798913309288E-33, 1, 0, -2.663161094103138E-07, 0.9999999999999646, -1.6307158540037057E-23, 0, -0.9999999999999646, -2.663161094103138E-07, -6.123233995736549E-17, 0, 34.468814849853516, 95.20475769042969, -0.16108642518520355, 1], "mesh" : 0, "name" : "Cylinder004"}], "scene" : 0, "scenes" : [{"nodes" : [0]}]}