{"accessors" : [{"bufferView" : 0, "byteOffset" : 0, "componentType" : 5123, "count" : 3624, "type" : "SCALAR", "max" : [3623], "min" : [0]}, {"bufferView" : 1, "byteOffset" : 0, "componentType" : 5126, "count" : 3624, "type" : "VEC3", "max" : [69.61479187011719, 2.7479054927825928, -1.2461048364639282], "min" : [66.12144470214844, -0.9136818051338196, -1.6461063623428345], "name" : "POSITION"}, {"bufferView" : 1, "byteOffset" : 12, "componentType" : 5126, "count" : 3624, "type" : "VEC2", "max" : [1.100000023841858, 1.0625], "min" : [-0.10000002384185791, -0.0625], "name" : "TEXCOORD_0"}, {"bufferView" : 1, "byteOffset" : 20, "componentType" : 5126, "count" : 3624, "type" : "VEC3", "max" : [1.0000044107437134, 1.0000044107437134, 1.0000044107437134], "min" : [-1.0000044107437134, -1.0000044107437134, -1.0000044107437134], "name" : "NORMAL"}, {"bufferView" : 0, "byteOffset" : 7248, "componentType" : 5123, "count" : 384, "type" : "SCALAR", "max" : [255], "min" : [0]}, {"bufferView" : 2, "byteOffset" : 0, "componentType" : 5126, "count" : 256, "type" : "VEC3", "max" : [67.71880340576172, -0.511604905128479, -0.2147308737039566], "min" : [66.47891998291016, -1.486989974975586, -1.277481198310852], "name" : "POSITION"}, {"bufferView" : 2, "byteOffset" : 12, "componentType" : 5126, "count" : 256, "type" : "VEC2", "max" : [0.4148617088794708, 1], "min" : [0.2944895029067993, 0.7174515724182129], "name" : "TEXCOORD_0"}, {"bufferView" : 2, "byteOffset" : 20, "componentType" : 5126, "count" : 256, "type" : "VEC3", "max" : [1.0000044107437134, 1.0000044107437134, 1.0000044107437134], "min" : [-1.0000044107437134, -1.0000044107437134, -1.0000044107437134], "name" : "NORMAL"}, {"bufferView" : 0, "byteOffset" : 8016, "componentType" : 5123, "count" : 672, "type" : "SCALAR", "max" : [447], "min" : [0]}, {"bufferView" : 3, "byteOffset" : 0, "componentType" : 5126, "count" : 448, "type" : "VEC3", "max" : [67.55803680419922, 3.778630256652832, -0.33931198716163635], "min" : [66.63968658447266, 2.3602261543273926, -1.1529011726379395], "name" : "POSITION"}, {"bufferView" : 3, "byteOffset" : 12, "componentType" : 5126, "count" : 448, "type" : "VEC2", "max" : [0.4148617386817932, 1], "min" : [0.2944895029067993, 0.7174515724182129], "name" : "TEXCOORD_0"}, {"bufferView" : 3, "byteOffset" : 20, "componentType" : 5126, "count" : 448, "type" : "VEC3", "max" : [1.0000044107437134, 1.0000044107437134, 1.0000044107437134], "min" : [-1.0000044107437134, -1.0000044107437134, -1.0000044107437134], "name" : "NORMAL"}, {"bufferView" : 0, "byteOffset" : 9360, "componentType" : 5123, "count" : 384, "type" : "SCALAR", "max" : [255], "min" : [0]}, {"bufferView" : 4, "byteOffset" : 0, "componentType" : 5126, "count" : 256, "type" : "VEC3", "max" : [69.25733184814453, -0.511604905128479, -0.2147308737039566], "min" : [68.01744842529297, -1.486989974975586, -1.277481198310852], "name" : "POSITION"}, {"bufferView" : 4, "byteOffset" : 12, "componentType" : 5126, "count" : 256, "type" : "VEC2", "max" : [0.4148617088794708, 1], "min" : [0.2944895029067993, 0.7174515724182129], "name" : "TEXCOORD_0"}, {"bufferView" : 4, "byteOffset" : 20, "componentType" : 5126, "count" : 256, "type" : "VEC3", "max" : [1.0000044107437134, 1.0000044107437134, 1.0000044107437134], "min" : [-1.0000044107437134, -1.0000044107437134, -1.0000044107437134], "name" : "NORMAL"}, {"bufferView" : 0, "byteOffset" : 10128, "componentType" : 5123, "count" : 672, "type" : "SCALAR", "max" : [447], "min" : [0]}, {"bufferView" : 5, "byteOffset" : 0, "componentType" : 5126, "count" : 448, "type" : "VEC3", "max" : [69.09656524658203, 3.778630256652832, -0.33931198716163635], "min" : [68.17821502685547, 2.3602261543273926, -1.1529011726379395], "name" : "POSITION"}, {"bufferView" : 5, "byteOffset" : 12, "componentType" : 5126, "count" : 448, "type" : "VEC2", "max" : [0.4148617386817932, 1], "min" : [0.2944895029067993, 0.7174515724182129], "name" : "TEXCOORD_0"}, {"bufferView" : 5, "byteOffset" : 20, "componentType" : 5126, "count" : 448, "type" : "VEC3", "max" : [1.0000044107437134, 1.0000044107437134, 1.0000044107437134], "min" : [-1.0000044107437134, -1.0000044107437134, -1.0000044107437134], "name" : "NORMAL"}, {"bufferView" : 0, "byteOffset" : 11472, "componentType" : 5123, "count" : 2154, "type" : "SCALAR", "max" : [2153], "min" : [0]}, {"bufferView" : 6, "byteOffset" : 0, "componentType" : 5126, "count" : 2154, "type" : "VEC3", "max" : [69.61478424072266, 2.7479138374328613, 0.15389496088027954], "min" : [66.1214599609375, -0.9136736989021301, -1.3950717449188232], "name" : "POSITION"}, {"bufferView" : 6, "byteOffset" : 12, "componentType" : 5126, "count" : 2154, "type" : "VEC2", "max" : [1.100000023841858, 1.1560003757476807], "min" : [-0.044000301510095596, -0.0625], "name" : "TEXCOORD_0"}, {"bufferView" : 6, "byteOffset" : 20, "componentType" : 5126, "count" : 2154, "type" : "VEC3", "max" : [1.0000044107437134, 1.0000044107437134, 1.0000044107437134], "min" : [-1.0000044107437134, -1.0000044107437134, -1.0000044107437134], "name" : "NORMAL"}, {"bufferView" : 0, "byteOffset" : 15780, "componentType" : 5123, "count" : 36, "type" : "SCALAR", "max" : [23], "min" : [0]}, {"bufferView" : 7, "byteOffset" : 0, "componentType" : 5126, "count" : 24, "type" : "VEC3", "max" : [68.42810821533203, 2.0358994007110596, 0.05389315262436867], "min" : [67.30814361572266, 1.0558993816375732, -0.026107003912329674], "name" : "POSITION"}, {"bufferView" : 7, "byteOffset" : 12, "componentType" : 5126, "count" : 24, "type" : "VEC2", "max" : [1, 1], "min" : [0, 0], "name" : "TEXCOORD_0"}, {"bufferView" : 7, "byteOffset" : 20, "componentType" : 5126, "count" : 24, "type" : "VEC3", "max" : [1.0000044107437134, 1.0000044107437134, 1.0000044107437134], "min" : [-1.0000044107437134, -1.0000044107437134, -1.0000044107437134], "name" : "NORMAL"}], "asset" : {"generator" : "Aspose.3D 24.2.0", "version" : "2.0"}, "buffers" : [{"uri" : "buffer.bin", "byteLength" : 246604}], "bufferViews" : [{"buffer" : 0, "byteOffset" : 0, "byteLength" : 15852, "target" : 34963}, {"buffer" : 0, "byteOffset" : 15856, "byteLength" : 115968, "byteStride" : 32, "target" : 34962}, {"buffer" : 0, "byteOffset" : 131828, "byteLength" : 8192, "byteStride" : 32, "target" : 34962}, {"buffer" : 0, "byteOffset" : 140024, "byteLength" : 14336, "byteStride" : 32, "target" : 34962}, {"buffer" : 0, "byteOffset" : 154364, "byteLength" : 8192, "byteStride" : 32, "target" : 34962}, {"buffer" : 0, "byteOffset" : 162560, "byteLength" : 14336, "byteStride" : 32, "target" : 34962}, {"buffer" : 0, "byteOffset" : 176900, "byteLength" : 68928, "byteStride" : 32, "target" : 34962}, {"buffer" : 0, "byteOffset" : 245832, "byteLength" : 768, "byteStride" : 32, "target" : 34962}], "meshes" : [{"primitives" : [{"attributes" : {"POSITION" : 1, "TEXCOORD_0" : 2, "NORMAL" : 3}, "indices" : 0, "mode" : 4}], "name" : ""}, {"primitives" : [{"attributes" : {"POSITION" : 5, "TEXCOORD_0" : 6, "NORMAL" : 7}, "indices" : 4, "mode" : 4}], "name" : ""}, {"primitives" : [{"attributes" : {"POSITION" : 9, "TEXCOORD_0" : 10, "NORMAL" : 11}, "indices" : 8, "mode" : 4}], "name" : ""}, {"primitives" : [{"attributes" : {"POSITION" : 13, "TEXCOORD_0" : 14, "NORMAL" : 15}, "indices" : 12, "mode" : 4}], "name" : ""}, {"primitives" : [{"attributes" : {"POSITION" : 17, "TEXCOORD_0" : 18, "NORMAL" : 19}, "indices" : 16, "mode" : 4}], "name" : ""}, {"primitives" : [{"attributes" : {"POSITION" : 21, "TEXCOORD_0" : 22, "NORMAL" : 23}, "indices" : 20, "mode" : 4}], "name" : ""}, {"primitives" : [{"attributes" : {"POSITION" : 25, "TEXCOORD_0" : 26, "NORMAL" : 27}, "indices" : 24, "mode" : 4}], "name" : ""}], "nodes" : [{"mesh" : 0, "name" : "Op2_2"}, {"mesh" : 1, "name" : "Apoyo2"}, {"mesh" : 2, "name" : "Oreja2"}, {"mesh" : 3, "name" : "Apoyo1"}, {"mesh" : 4, "name" : "Oreja1"}, {"mesh" : 5, "name" : "Op2_1"}, {"mesh" : 6, "name" : "Box001"}], "scene" : 0, "scenes" : [{"nodes" : [0, 1, 2, 3, 4, 5, 6]}]}